<svg xmlns="http://www.w3.org/2000/svg" viewBox="0 0 400 120" role="img" aria-label="Scatter data with a least-squares line and residuals">
<title>Scatter data with a least-squares line and residuals</title>
<defs>
<linearGradient id="bg" x1="0" y1="0" x2="1" y2="1">
<stop offset="0" stop-color="#3b82f6" stop-opacity="0.13"/>
<stop offset="1" stop-color="#8b5cf6" stop-opacity="0.13"/>
</linearGradient>
<pattern id="dots" width="16" height="16" patternUnits="userSpaceOnUse">
<circle cx="2" cy="2" r="0.9" fill="#64748b" fill-opacity="0.22"/>
</pattern>
</defs>
<rect width="400" height="120" fill="url(#bg)"/>
<rect width="400" height="120" fill="url(#dots)"/>
<path d="M30 104 H384 M30 104 V14" stroke="#64748b" stroke-opacity="0.5" stroke-width="1.5"/><line x1="44" y1="86.6" x2="44" y2="92.9" stroke="#f59e0b" stroke-width="1.4" stroke-opacity="0.8"/><circle cx="44" cy="86.6" r="4" fill="#3b82f6" fill-opacity="0.75"/><line x1="68" y1="78.1" x2="68" y2="87.6" stroke="#f59e0b" stroke-width="1.4" stroke-opacity="0.8"/><circle cx="68" cy="78.1" r="4" fill="#3b82f6" fill-opacity="0.75"/><line x1="92" y1="79.9" x2="92" y2="82.4" stroke="#f59e0b" stroke-width="1.4" stroke-opacity="0.8"/><circle cx="92" cy="79.9" r="4" fill="#3b82f6" fill-opacity="0.75"/><line x1="116" y1="68.8" x2="116" y2="77.1" stroke="#f59e0b" stroke-width="1.4" stroke-opacity="0.8"/><circle cx="116" cy="68.8" r="4" fill="#3b82f6" fill-opacity="0.75"/><line x1="140" y1="61.4" x2="140" y2="71.8" stroke="#f59e0b" stroke-width="1.4" stroke-opacity="0.8"/><circle cx="140" cy="61.4" r="4" fill="#3b82f6" fill-opacity="0.75"/><line x1="164" y1="64.2" x2="164" y2="66.5" stroke="#f59e0b" stroke-width="1.4" stroke-opacity="0.8"/><circle cx="164" cy="64.2" r="4" fill="#3b82f6" fill-opacity="0.75"/><line x1="188" y1="71.3" x2="188" y2="61.2" stroke="#f59e0b" stroke-width="1.4" stroke-opacity="0.8"/><circle cx="188" cy="71.3" r="4" fill="#3b82f6" fill-opacity="0.75"/><line x1="212" y1="63.2" x2="212" y2="56.0" stroke="#f59e0b" stroke-width="1.4" stroke-opacity="0.8"/><circle cx="212" cy="63.2" r="4" fill="#3b82f6" fill-opacity="0.75"/><line x1="236" y1="57.0" x2="236" y2="50.7" stroke="#f59e0b" stroke-width="1.4" stroke-opacity="0.8"/><circle cx="236" cy="57.0" r="4" fill="#3b82f6" fill-opacity="0.75"/><line x1="260" y1="38.7" x2="260" y2="45.4" stroke="#f59e0b" stroke-width="1.4" stroke-opacity="0.8"/><circle cx="260" cy="38.7" r="4" fill="#3b82f6" fill-opacity="0.75"/><line x1="284" y1="41.0" x2="284" y2="40.1" stroke="#f59e0b" stroke-width="1.4" stroke-opacity="0.8"/><circle cx="284" cy="41.0" r="4" fill="#3b82f6" fill-opacity="0.75"/><line x1="308" y1="29.5" x2="308" y2="34.8" stroke="#f59e0b" stroke-width="1.4" stroke-opacity="0.8"/><circle cx="308" cy="29.5" r="4" fill="#3b82f6" fill-opacity="0.75"/><line x1="332" y1="21.7" x2="332" y2="29.6" stroke="#f59e0b" stroke-width="1.4" stroke-opacity="0.8"/><circle cx="332" cy="21.7" r="4" fill="#3b82f6" fill-opacity="0.75"/><line x1="356" y1="14.8" x2="356" y2="24.3" stroke="#f59e0b" stroke-width="1.4" stroke-opacity="0.8"/><circle cx="356" cy="14.8" r="4" fill="#3b82f6" fill-opacity="0.75"/><line x1="30" y1="96" x2="384" y2="18.1" stroke="#8b5cf6" stroke-width="3" stroke-linecap="round"/><text x="44" y="26" font-size="11" font-family="'IBM Plex Mono',ui-monospace,monospace" fill="#8b5cf6">y = mx + b</text>
</svg>
